<svg width="160" height="41" viewBox="0 0 160 41" fill="none" xmlns="http://www.w3.org/2000/svg">
<path d="M58.856 29.9583V15.5823H53.264V13.0383H67.544V15.5823H61.952V29.9583H58.856ZM67.5924 29.9583V20.9343C67.5924 20.4223 67.5764 19.9023 67.5444 19.3743C67.5284 18.8463 67.4884 18.3343 67.4244 17.8383H70.3284L70.6644 21.1503H70.1844C70.3444 20.3503 70.6084 19.6863 70.9764 19.1583C71.3604 18.6303 71.8244 18.2383 72.3684 17.9823C72.9124 17.7263 73.5044 17.5983 74.1444 17.5983C74.4324 17.5983 74.6644 17.6143 74.8404 17.6463C75.0164 17.6623 75.1924 17.7023 75.3684 17.7663L75.3444 20.4063C75.0404 20.2783 74.7764 20.1983 74.5524 20.1663C74.3444 20.1343 74.0804 20.1183 73.7604 20.1183C73.0724 20.1183 72.4884 20.2623 72.0084 20.5503C71.5444 20.8383 71.1924 21.2383 70.9524 21.7503C70.7284 22.2623 70.6164 22.8463 70.6164 23.5023V29.9583H67.5924ZM81.6011 30.1983C80.5451 30.1983 79.6171 29.9503 78.8171 29.4543C78.0171 28.9423 77.3931 28.2143 76.9451 27.2703C76.4971 26.3263 76.2731 25.1983 76.2731 23.8863C76.2731 22.5743 76.4971 21.4543 76.9451 20.5263C77.3931 19.5823 78.0171 18.8623 78.8171 18.3663C79.6171 17.8543 80.5451 17.5983 81.6011 17.5983C82.6251 17.5983 83.5211 17.8543 84.2891 18.3663C85.0731 18.8623 85.5931 19.5343 85.8491 20.3823H85.5851L85.8491 17.8383H88.7291C88.6811 18.3343 88.6331 18.8383 88.5851 19.3503C88.5531 19.8623 88.5371 20.3663 88.5371 20.8623V29.9583H85.5611L85.5371 27.4623H85.8251C85.5691 28.2943 85.0491 28.9583 84.2651 29.4543C83.4811 29.9503 82.5931 30.1983 81.6011 30.1983ZM82.4411 27.8943C83.3851 27.8943 84.1451 27.5663 84.7211 26.9103C85.2971 26.2383 85.5851 25.2303 85.5851 23.8863C85.5851 22.5423 85.2971 21.5423 84.7211 20.8863C84.1451 20.2303 83.3851 19.9023 82.4411 19.9023C81.4971 19.9023 80.7371 20.2303 80.1611 20.8863C79.5851 21.5423 79.2971 22.5423 79.2971 23.8863C79.2971 25.2303 79.5771 26.2383 80.1371 26.9103C80.7131 27.5663 81.4811 27.8943 82.4411 27.8943ZM92.6199 29.9583V20.0943H90.2919V17.8383H93.4599L92.6199 18.6063V16.7583C92.6199 15.2543 93.0039 14.1183 93.7719 13.3503C94.5559 12.5823 95.6999 12.1983 97.2039 12.1983C97.5559 12.1983 97.9239 12.2223 98.3079 12.2703C98.7079 12.3183 99.0519 12.4063 99.3399 12.5343V14.8863C99.1319 14.8063 98.8839 14.7423 98.5959 14.6943C98.3079 14.6463 98.0279 14.6223 97.7559 14.6223C97.3399 14.6223 96.9639 14.7023 96.6279 14.8623C96.3079 15.0223 96.0519 15.2703 95.8599 15.6063C95.6839 15.9263 95.5959 16.3583 95.5959 16.9023V18.3663L95.1639 17.8383H98.7879V20.0943H95.6199V29.9583H92.6199ZM105.203 30.1983C104.147 30.1983 103.219 29.9503 102.419 29.4543C101.619 28.9423 100.995 28.2143 100.547 27.2703C100.099 26.3263 99.8746 25.1983 99.8746 23.8863C99.8746 22.5743 100.099 21.4543 100.547 20.5263C100.995 19.5823 101.619 18.8623 102.419 18.3663C103.219 17.8543 104.147 17.5983 105.203 17.5983C106.227 17.5983 107.123 17.8543 107.891 18.3663C108.675 18.8623 109.195 19.5343 109.451 20.3823H109.187L109.451 17.8383H112.331C112.283 18.3343 112.235 18.8383 112.187 19.3503C112.155 19.8623 112.139 20.3663 112.139 20.8623V29.9583H109.163L109.139 27.4623H109.427C109.171 28.2943 108.651 28.9583 107.867 29.4543C107.083 29.9503 106.195 30.1983 105.203 30.1983ZM106.043 27.8943C106.987 27.8943 107.747 27.5663 108.323 26.9103C108.899 26.2383 109.187 25.2303 109.187 23.8863C109.187 22.5423 108.899 21.5423 108.323 20.8863C107.747 20.2303 106.987 19.9023 106.043 19.9023C105.099 19.9023 104.339 20.2303 103.763 20.8863C103.187 21.5423 102.899 22.5423 102.899 23.8863C102.899 25.2303 103.179 26.2383 103.739 26.9103C104.315 27.5663 105.083 27.8943 106.043 27.8943ZM115.405 29.9583V12.2943H118.405V29.9583H115.405ZM127.279 35.3343C126.159 35.3343 125.143 35.2143 124.231 34.9743C123.335 34.7343 122.535 34.3663 121.831 33.8703L122.479 31.7103C122.943 32.0143 123.423 32.2623 123.919 32.4543C124.415 32.6463 124.927 32.7903 125.455 32.8863C125.983 32.9823 126.519 33.0303 127.063 33.0303C128.183 33.0303 129.015 32.7503 129.559 32.1903C130.119 31.6463 130.399 30.8623 130.399 29.8383V26.9343H130.639C130.383 27.7663 129.863 28.4303 129.079 28.9263C128.311 29.4223 127.423 29.6703 126.415 29.6703C125.327 29.6703 124.375 29.4303 123.559 28.9503C122.759 28.4543 122.135 27.7503 121.687 26.8383C121.239 25.9263 121.015 24.8543 121.015 23.6223C121.015 22.3903 121.239 21.3263 121.687 20.4303C122.135 19.5183 122.759 18.8223 123.559 18.3423C124.375 17.8463 125.327 17.5983 126.415 17.5983C127.439 17.5983 128.327 17.8463 129.079 18.3423C129.847 18.8223 130.359 19.4783 130.615 20.3103L130.399 20.1663L130.639 17.8383H133.543C133.479 18.3343 133.431 18.8383 133.399 19.3503C133.367 19.8623 133.351 20.3663 133.351 20.8623V29.4783C133.351 31.3823 132.831 32.8303 131.791 33.8223C130.767 34.8303 129.263 35.3343 127.279 35.3343ZM127.231 27.3663C128.191 27.3663 128.951 27.0463 129.511 26.4063C130.087 25.7503 130.375 24.8223 130.375 23.6223C130.375 22.4223 130.087 21.5023 129.511 20.8623C128.951 20.2223 128.191 19.9023 127.231 19.9023C126.255 19.9023 125.479 20.2223 124.903 20.8623C124.327 21.5023 124.039 22.4223 124.039 23.6223C124.039 24.8223 124.327 25.7503 124.903 26.4063C125.479 27.0463 126.255 27.3663 127.231 27.3663ZM141.273 30.1983C140.217 30.1983 139.289 29.9503 138.489 29.4543C137.689 28.9423 137.065 28.2143 136.617 27.2703C136.169 26.3263 135.945 25.1983 135.945 23.8863C135.945 22.5743 136.169 21.4543 136.617 20.5263C137.065 19.5823 137.689 18.8623 138.489 18.3663C139.289 17.8543 140.217 17.5983 141.273 17.5983C142.297 17.5983 143.193 17.8543 143.961 18.3663C144.745 18.8623 145.265 19.5343 145.521 20.3823H145.257L145.521 17.8383H148.401C148.353 18.3343 148.305 18.8383 148.257 19.3503C148.225 19.8623 148.209 20.3663 148.209 20.8623V29.9583H145.233L145.209 27.4623H145.497C145.241 28.2943 144.721 28.9583 143.937 29.4543C143.153 29.9503 142.265 30.1983 141.273 30.1983ZM142.113 27.8943C143.057 27.8943 143.817 27.5663 144.393 26.9103C144.969 26.2383 145.257 25.2303 145.257 23.8863C145.257 22.5423 144.969 21.5423 144.393 20.8863C143.817 20.2303 143.057 19.9023 142.113 19.9023C141.169 19.9023 140.409 20.2303 139.833 20.8863C139.257 21.5423 138.969 22.5423 138.969 23.8863C138.969 25.2303 139.249 26.2383 139.809 26.9103C140.385 27.5663 141.153 27.8943 142.113 27.8943ZM151.452 29.9583V20.9343C151.452 20.4223 151.436 19.9023 151.404 19.3743C151.388 18.8463 151.348 18.3343 151.284 17.8383H154.188L154.524 21.1503H154.044C154.204 20.3503 154.468 19.6863 154.836 19.1583C155.22 18.6303 155.684 18.2383 156.228 17.9823C156.772 17.7263 157.364 17.5983 158.004 17.5983C158.292 17.5983 158.524 17.6143 158.7 17.6463C158.876 17.6623 159.052 17.7023 159.228 17.7663L159.204 20.4063C158.9 20.2783 158.636 20.1983 158.412 20.1663C158.204 20.1343 157.94 20.1183 157.62 20.1183C156.932 20.1183 156.348 20.2623 155.868 20.5503C155.404 20.8383 155.052 21.2383 154.812 21.7503C154.588 22.2623 154.476 22.8463 154.476 23.5023V29.9583H151.452Z" fill="#233348"/>
<ellipse cx="20.5" cy="20.3574" rx="20.5" ry="20.3574" fill="#458FF6"/>
<path d="M19.344 30.9652V15.3912H13.286V12.6352H28.756V15.3912H22.698V30.9652H19.344Z" fill="white"/>
</svg>
