<svg width="209" height="44" viewBox="0 0 209 44" fill="none" xmlns="http://www.w3.org/2000/svg">
<g id="Logo version1 - 1" clip-path="url(#clip0_2_133)">
<g id="Layer 2">
<g id="Layer 1">
<path id="Vector" d="M106.512 20.9804C107.099 20.9837 107.686 20.9407 108.267 20.8517V23.4384C107.738 23.5321 107.201 23.5752 106.664 23.5671C104.118 23.5671 101.982 22.5196 100.782 20.442C100.109 20.5307 99.4305 20.5737 98.7515 20.5708C92.6944 20.5708 88.6739 17.3227 88.6739 12.4419C88.6739 7.56113 92.671 4.31311 98.7281 4.31311C104.785 4.31311 108.853 7.56698 108.853 12.4419C108.853 15.9943 106.716 18.6688 103.228 19.8861C104.155 20.6353 105.321 21.024 106.512 20.9804ZM98.7281 18.0894C102.749 18.0894 105.464 15.8246 105.464 12.4419C105.464 9.05932 102.749 6.79448 98.7281 6.79448C94.7076 6.79448 92.0097 9.06517 92.0097 12.4419C92.0097 15.8187 94.7251 18.0894 98.7281 18.0894Z" fill="white"/>
<path id="Vector_2" d="M108.712 4.8457H111.989L115.6 15.9299C115.747 16.3404 115.854 16.7636 115.922 17.194H115.986C116.069 16.757 116.206 16.3322 116.396 15.9299L120.674 4.8457H123.946L128.224 15.9299C128.414 16.33 128.544 16.756 128.61 17.194H128.674C128.748 16.7631 128.862 16.34 129.014 15.9299L132.63 4.8457H135.902L130.576 20.0617H126.831L122.682 9.21736C122.519 8.82609 122.411 8.41463 122.36 7.99423H122.254C122.208 8.41566 122.1 8.82788 121.932 9.21736L117.783 20.0617H114.044L108.712 4.8457Z" fill="white"/>
<path id="Vector_3" d="M153.055 17.6622V20.0382H138.079V4.82227H152.903V7.1983H141.268V11.1369H152.54V13.4017H141.268V17.6388L153.055 17.6622Z" fill="white"/>
<path id="Vector_4" d="M165.181 14.262H159.51V20.0382H156.326V4.82227H166.445C170.957 4.82227 172.262 7.28608 172.262 9.46898C172.262 11.1603 171.343 13.1676 168.604 13.8523L172.841 20.0148H169.16L165.181 14.262ZM159.51 12.0147H165.76C168.177 12.0147 168.903 10.7331 168.903 9.53336C168.903 8.33364 168.201 7.15733 165.778 7.15733H159.51V12.0147Z" fill="white"/>
<path id="Vector_5" d="M189.614 7.39145H182.808V20.0382H179.618V7.39145H172.818V4.8457H189.614V7.39145Z" fill="white"/>
<path id="Vector_6" d="M197.842 14.7302L190.035 4.8457H193.799L199.019 11.6285C199.22 11.8616 199.373 12.1321 199.469 12.4244H199.51C199.597 12.1327 199.742 11.8619 199.938 11.6285L205.31 4.8457H208.927L201.026 14.7302V20.0382H197.842V14.7302Z" fill="white"/>
<path id="Vector_7" d="M103.305 40.2286H93.4845L91.8809 43.4415H88.4339L96.5394 28.2256H100.285L108.39 43.4415H104.932L103.305 40.2286ZM102.134 37.9872L100.162 34.0896C99.4537 32.8882 98.8656 31.6199 98.4062 30.3031H98.3418C97.8819 31.6197 97.2939 32.8879 96.5862 34.0896L94.6198 37.9872H102.134Z" fill="white"/>
<path id="Vector_8" d="M110.403 28.249H113.593V40.849H124.589V43.4416H110.403V28.249Z" fill="white"/>
<path id="Vector_9" d="M130.149 30.666V34.6455H141.421V37.045H130.149V43.4415H126.96V28.2256H141.783V30.666H130.149Z" fill="white"/>
<path id="Vector_10" d="M155.495 40.2286H145.675L144.048 43.4415H140.607L148.712 28.2256H152.458L160.563 43.4415H157.122L155.495 40.2286ZM154.325 37.9872L152.358 34.0896C151.651 32.8879 151.063 31.6197 150.603 30.3031H150.538C150.082 31.6209 149.493 32.8895 148.783 34.0896L146.81 37.9872H154.325Z" fill="white"/>
<path id="Vector_11" d="M164.625 43.74C163.656 43.7627 162.687 43.6842 161.734 43.5059V40.8724C162.519 41.0024 163.314 41.0669 164.11 41.0655C166.252 41.0655 167.621 40.2287 167.621 37.3844V28.249H170.811V37.8117C170.787 42.1365 168.347 43.74 164.625 43.74Z" fill="white"/>
<path id="Vector_12" d="M182.978 37.6653H177.324V43.4415H174.141V28.2256H184.259C188.771 28.2256 190.076 30.6894 190.076 32.8723C190.076 34.5578 189.158 36.5709 186.419 37.2557L190.65 43.4181H186.975L182.978 37.6653ZM177.324 35.418H183.575C185.992 35.418 186.717 34.1364 186.717 32.9367C186.717 31.737 186.009 30.5606 183.592 30.5606H177.324V35.418Z" fill="white"/>
<path id="Vector_13" d="M53.9815 28.7581H72.1236C72.1236 33.6272 72.0709 38.3793 72.0417 43.2718C71.8895 43.2718 71.5267 43.3362 71.158 43.3362C65.7153 43.3362 60.2669 43.3713 54.8242 43.2952C54.0427 43.2555 53.3005 42.9403 52.7291 42.4057C47.2046 36.963 41.7327 31.4619 36.0735 25.8027L34.944 26.9205C29.7647 32.0822 24.5796 37.2791 19.3769 42.4174C18.8024 42.9508 18.0588 43.2656 17.276 43.3069C11.4997 43.3654 5.72354 43.3069 0 43.3069C0.0351137 38.4612 0.0643752 33.7033 0.0994889 28.8693L18.1421 28.9454L18.265 28.524L5.38996 15.649L15.6022 5.47187L28.4772 18.3469C28.4772 12.0791 28.4772 6.00443 28.4772 -0.0175781L43.2074 0.0936153C43.2074 5.9459 43.2074 12.044 43.1723 18.1245L43.5761 18.2416L56.4512 5.36653L66.6576 15.5729L53.841 28.4128L53.9815 28.7581Z" fill="#FFD100"/>
</g>
</g>
</g>
<defs>
<clipPath id="clip0_2_133">
<rect width="208.921" height="43.74" fill="white"/>
</clipPath>
</defs>
</svg>
